<svg height="464pt" viewBox="-16 0 464 464.01537" width="464pt" xmlns="http://www.w3.org/2000/svg">
    <path
        d="m288.007812 464h-176c-60.816406 1.015625-110.953124-47.445312-111.9999995-108.265625v-355.734375h287.9999995zm0 0"
        fill="#87cee9" />
    <path
        d="m72.007812 48h144c13.253907 0 24 10.746094 24 24v32c0 13.253906-10.746093 24-24 24h-144c-13.253906 0-24-10.746094-24-24v-32c0-13.253906 10.746094-24 24-24zm0 0"
        fill="#238892" />
    <path d="m80.007812 72h16v16h-16zm0 0" fill="#fff" />
    <path d="m96.007812 88h16v16h-16zm0 0" fill="#fff" />
    <path d="m128.007812 72h16v16h-16zm0 0" fill="#fff" />
    <path d="m144.007812 88h16v16h-16zm0 0" fill="#fff" />
    <path d="m176.007812 72h16v16h-16zm0 0" fill="#fff" />
    <path d="m192.007812 88h16v16h-16zm0 0" fill="#fff" />
    <g fill="#2d75bb">
        <path
            d="m400.007812 296-26.664062-40h-26.671875l-26.664063 40-26.664062-40h-5.335938v208c79.527344 0 144-64.472656 144-144v-64h-5.335937zm0 0" />
        <path d="m56.007812 200h96v16h-96zm0 0" />
        <path d="m216.007812 200h16v16h-16zm0 0" />
        <path d="m56.007812 232h128v16h-128zm0 0" />
        <path d="m216.007812 232h16v16h-16zm0 0" />
        <path d="m56.007812 264h112v16h-112zm0 0" />
        <path d="m216.007812 264h16v16h-16zm0 0" />
        <path d="m56.007812 296h128v16h-128zm0 0" />
        <path d="m216.007812 296h16v16h-16zm0 0" />
        <path d="m80.007812 392h24v16h-24zm0 0" />
        <path d="m120.007812 392h24v16h-24zm0 0" />
        <path d="m160.007812 392h24v16h-24zm0 0" />
        <path d="m200.007812 392h24v16h-24zm0 0" />
        <path d="m240.007812 392h24v16h-24zm0 0" />
        <path d="m40.007812 392h24v16h-24zm0 0" />
    </g>
</svg>